<?xml version="1.0" standalone="no"?>
<!DOCTYPE svg PUBLIC "-//W3C//DTD SVG 20010904//EN"
 "http://www.w3.org/TR/2001/REC-SVG-20010904/DTD/svg10.dtd">
<svg version="1.0" xmlns="http://www.w3.org/2000/svg"
 width="1599.000000pt" height="1599.000000pt" viewBox="0 0 1599.000000 1599.000000"
 preserveAspectRatio="xMidYMid meet">
<metadata>
Created by potrace 1.16, written by Peter Selinger 2001-2019
</metadata>
<g transform="translate(0.000000,1599.000000) scale(0.100000,-0.100000)"
fill="#000000" stroke="none">
<path d="M6715 10349 c-552 -25 -1077 -138 -1531 -329 -212 -89 -329 -162
-889 -553 -257 -180 -322 -221 -422 -268 -125 -59 -378 -140 -668 -214 -494
-127 -608 -164 -744 -239 -153 -85 -217 -155 -304 -331 -98 -199 -137 -392
-151 -745 -13 -316 -17 -800 -7 -888 21 -198 139 -347 320 -402 55 -18 93 -20
308 -20 l245 0 -5 23 c-3 12 -11 72 -18 133 -18 166 0 331 57 517 127 414 489
752 918 857 320 78 659 31 941 -131 349 -200 576 -528 641 -924 16 -98 15
-319 -3 -429 l-6 -39 1773 6 c975 4 2118 7 2540 7 l767 0 -9 48 c-18 84 -15
347 5 446 83 408 328 731 699 920 161 81 390 135 577 136 155 0 381 -51 528
-120 409 -191 678 -558 743 -1012 12 -82 9 -271 -6 -385 l-6 -43 407 0 408 0
31 33 c32 35 77 138 101 235 46 185 46 653 -1 927 -42 251 -138 472 -247 572
-178 164 -526 323 -922 422 -274 68 -1035 207 -1270 231 -55 6 -120 15 -145
22 -76 19 -172 74 -246 141 -95 85 -159 133 -347 260 -87 59 -190 131 -230
160 -153 112 -247 167 -482 282 -399 196 -707 314 -1090 419 -283 77 -520 130
-765 171 -52 9 -120 20 -150 25 -231 39 -944 94 -1135 88 -22 0 -116 -4 -210
-9z m472 -461 c13 -17 126 -962 118 -987 -3 -10 -11 -21 -18 -24 -17 -6 -2627
21 -2653 27 -12 3 -24 15 -27 27 -8 30 65 105 259 269 171 144 475 323 709
418 304 123 744 228 1100 262 235 22 498 26 512 8z m743 -8 c580 -60 1150
-214 1628 -441 57 -27 106 -49 108 -49 14 0 319 -175 409 -235 207 -138 395
-300 395 -339 0 -44 -33 -60 -118 -58 -98 3 -777 28 -1297 47 -220 8 -524 19
-675 25 -526 18 -539 19 -555 44 -8 12 -24 89 -35 172 -11 82 -30 217 -41 299
-67 489 -68 499 -53 523 12 19 23 22 77 22 34 0 105 -5 157 -10z"/>
<path d="M4012 7629 c-418 -49 -771 -373 -857 -789 -56 -273 6 -563 171 -789
225 -310 617 -465 991 -392 535 104 886 606 799 1141 -52 321 -256 592 -551
735 -107 52 -207 81 -330 95 -101 11 -119 11 -223 -1z"/>
<path d="M11622 7630 c-226 -32 -408 -120 -572 -276 -365 -349 -408 -912 -101
-1320 131 -175 339 -312 557 -366 129 -32 353 -32 474 1 360 96 634 366 724
713 127 489 -119 985 -584 1178 -144 60 -356 90 -498 70z"/>
</g>
</svg>
